<?xml version="1.0" encoding="iso-8859-1"?>
<!-- Generator: Adobe Illustrator 18.1.1, SVG Export Plug-In . SVG Version: 6.00 Build 0)  -->
<svg xmlns="http://www.w3.org/2000/svg" xmlns:xlink="http://www.w3.org/1999/xlink" version="1.1" id="Capa_1" x="0px" y="0px" viewBox="0 0 14.71 14.71" style="enable-background:new 0 0 14.71 14.71;" xml:space="preserve" width="512px" height="512px">
<g>
	<g>
		<path d="M7.493,5.667v2.698h0.005c0.018,0.681,0.254,4.65,3.457,6.345c3.138-1.715,3.436-5.666,3.463-6.345    h0.008V5.667C10.795,7.176,7.493,5.667,7.493,5.667z" fill="#f49700"/>
		<path d="M5.65,12.575c-2.824,0-4.792-0.988-4.792-1.875V9.247c0.881,0.807,2.694,1.321,4.792,1.321    c0.552,0,1.083-0.036,1.584-0.104c-0.107-0.373-0.187-0.729-0.239-1.042c-0.422,0.051-0.87,0.08-1.345,0.08    c-2.824,0-4.792-0.987-4.792-1.874V6.174C1.739,6.981,3.552,7.495,5.65,7.495c0.419,0,0.825-0.021,1.216-0.061V6.322    C6.482,6.364,6.078,6.388,5.65,6.388c-2.824,0-4.792-0.987-4.792-1.875V3.228c0.861,0.73,2.858,1.108,4.792,1.108    c1.936,0,3.932-0.378,4.793-1.108v1.286c0,0.396-0.395,0.812-1.08,1.151c0.396,0.063,0.844,0.106,1.329,0.106    c0.094,0,0.186-0.01,0.279-0.013c-0.032-0.113-0.08-0.226-0.146-0.339l-0.076-0.13c0.172-0.243,0.268-0.502,0.268-0.775V2.969    c0-0.209-0.058-0.422-0.174-0.633L10.807,2.27c0.049-0.111,0.081-0.225,0.081-0.347C10.888,0.674,8.189,0,5.65,0    C3.112,0,0.413,0.674,0.413,1.923c0,0.123,0.033,0.237,0.083,0.348L0.458,2.336C0.342,2.547,0.284,2.76,0.284,2.969v1.545    c0,0.272,0.096,0.532,0.267,0.774L0.475,5.421c-0.126,0.22-0.19,0.442-0.19,0.662v1.546c0,0.266,0.09,0.519,0.253,0.756    L0.475,8.493c-0.126,0.22-0.19,0.442-0.19,0.662V10.7c0,1.373,2.357,2.45,5.366,2.45c0.995,0,1.916-0.12,2.706-0.327    c-0.12-0.166-0.231-0.335-0.333-0.507C7.34,12.477,6.538,12.575,5.65,12.575z M5.65,0.575c2.89,0,4.664,0.786,4.664,1.348    c0,0.563-1.774,1.349-4.664,1.349c-2.889,0-4.662-0.786-4.662-1.349C0.988,1.36,2.761,0.575,5.65,0.575z" fill="#f49700"/>
	</g>
</g>
<g>
</g>
<g>
</g>
<g>
</g>
<g>
</g>
<g>
</g>
<g>
</g>
<g>
</g>
<g>
</g>
<g>
</g>
<g>
</g>
<g>
</g>
<g>
</g>
<g>
</g>
<g>
</g>
<g>
</g>
</svg>
